<svg width="619" height="284" viewBox="0 0 619 284" fill="none" xmlns="http://www.w3.org/2000/svg">
<g clip-path="url(#clip0_24_16)">
<path d="M439.678 1.1875C468.455 -0.452034 499.265 8.22401 509.646 36.3945L509.887 37.0635C510.711 39.393 513.722 40.0649 515.397 38.1855L515.396 38.1846C521.107 31.7871 527.205 25.8334 534.157 20.7998L534.162 20.7959C534.953 20.2147 536.536 19.0501 538.099 17.9609C538.881 17.416 539.651 16.895 540.309 16.4785C540.991 16.0472 541.485 15.7722 541.743 15.6719L541.762 15.6641C541.842 15.6311 541.922 15.5968 541.986 15.5693C542.054 15.5402 542.111 15.5164 542.163 15.4961C542.215 15.4755 542.255 15.4613 542.285 15.4521L549.753 28.4385L549.754 28.4414C550.071 28.9882 549.924 29.6858 549.408 30.0732L549.299 30.1465C529.895 41.9809 515.281 60.8485 511.97 83.7373V83.7383C511.64 86.0488 513.765 87.9702 516.033 87.3779L516.035 87.377C529.839 83.738 544.331 80.0098 558.328 81.7422C592.151 85.9268 614.463 119.302 616.901 151.751L617.001 153.296C618.188 174.628 611.709 204.769 598.649 230.062C585.575 255.384 566.083 275.527 541.414 277.48H532.92C532.89 277.48 532.85 277.478 532.801 277.471L532.629 277.437C531.027 277.027 529.397 276.754 527.809 276.492C526.201 276.227 524.639 275.973 523.108 275.599H523.107C521.204 275.136 519.227 274.448 517.182 273.695C515.155 272.949 513.046 272.132 510.953 271.446C506.907 270.121 502.686 269.201 498.661 270.194L498.272 270.297C496.175 270.879 494.039 271.745 491.964 272.561C489.866 273.385 487.82 274.163 485.806 274.635L472.395 277.451L472.383 277.454C472.31 277.47 472.214 277.478 472.105 277.472C470.502 277.384 468.827 277.465 467.234 277.526C465.616 277.589 464.075 277.633 462.635 277.495L462.634 277.494L461.663 277.393C441.65 275.081 425.107 259.937 412.786 240.225L412.193 239.268C411.738 238.519 411.709 237.584 412.117 236.804L412.118 236.801C423.868 214.171 435.607 191.561 447.357 168.951H447.358L447.361 168.945C447.81 168.068 448.261 167.195 448.712 166.322C449.162 165.452 449.611 164.581 450.056 163.711L450.057 163.712C463.146 138.534 476.226 113.355 489.285 88.1963C489.551 87.691 490.125 87.4245 490.698 87.5547C490.944 87.6179 491.199 87.6724 491.408 87.7178V87.7168C493.297 88.1372 495.084 86.7916 495.313 84.9219V84.9199L496.133 78.1299L496.261 77.0684L495.194 77.0117C494.634 76.9817 494.121 76.9523 493.602 76.9043L493.594 76.9033H493.586C488.959 76.5481 484.384 75.7585 479.992 74.5176H479.991C479.136 74.2773 478.78 73.2441 479.313 72.5264L479.314 72.5254C484.83 65.0713 489.815 60.7937 492.902 58.583L492.904 58.582C495.65 56.6089 498.232 54.3938 500.536 51.8857C502.313 49.9705 501.203 46.8643 498.645 46.4619L496.927 46.1924H496.928C494.944 45.8737 492.941 45.7197 490.94 45.7197H467.43C461.791 45.7197 456.197 49.3307 451.597 53.749C451.033 54.2905 450.125 54.1959 449.684 53.5537L449.68 53.5488L449.236 52.8926C448.943 52.4502 448.656 51.9972 448.373 51.5352L447.948 50.8359C439.373 36.3946 438.171 19.2136 438.49 2.43555C438.507 1.76493 439.028 1.22717 439.679 1.18848L439.678 1.1875Z" fill="black"/>
<path d="M439.678 1.1875C468.455 -0.452034 499.265 8.22401 509.646 36.3945L509.887 37.0635C510.711 39.393 513.722 40.0649 515.397 38.1855L515.396 38.1846C521.107 31.7871 527.205 25.8334 534.157 20.7998L534.162 20.7959C534.953 20.2147 536.536 19.0501 538.099 17.9609C538.881 17.416 539.651 16.895 540.309 16.4785C540.991 16.0472 541.485 15.7722 541.743 15.6719L541.762 15.6641C541.842 15.6311 541.922 15.5968 541.986 15.5693C542.054 15.5402 542.111 15.5164 542.163 15.4961C542.215 15.4755 542.255 15.4613 542.285 15.4521L549.753 28.4385L549.754 28.4414C550.071 28.9882 549.924 29.6858 549.408 30.0732L549.299 30.1465C529.895 41.9809 515.281 60.8485 511.97 83.7373V83.7383C511.64 86.0488 513.765 87.9702 516.033 87.3779L516.035 87.377C529.839 83.738 544.331 80.0098 558.328 81.7422C592.151 85.9268 614.463 119.302 616.901 151.751L617.001 153.296C618.188 174.628 611.709 204.769 598.649 230.062C585.575 255.384 566.083 275.527 541.414 277.48H532.92C532.89 277.48 532.85 277.478 532.801 277.471L532.629 277.437C531.027 277.027 529.397 276.754 527.809 276.492C526.201 276.227 524.639 275.973 523.108 275.599H523.107C521.204 275.136 519.227 274.448 517.182 273.695C515.155 272.949 513.046 272.132 510.953 271.446C506.907 270.121 502.686 269.201 498.661 270.194L498.272 270.297C496.175 270.879 494.039 271.745 491.964 272.561C489.866 273.385 487.82 274.163 485.806 274.635L472.395 277.451L472.383 277.454C472.31 277.47 472.214 277.478 472.105 277.472C470.502 277.384 468.827 277.465 467.234 277.526C465.616 277.589 464.075 277.633 462.635 277.495L462.634 277.494L461.663 277.393C441.65 275.081 425.107 259.937 412.786 240.225L412.193 239.268C411.738 238.519 411.709 237.584 412.117 236.804L412.118 236.801C423.868 214.171 435.607 191.561 447.357 168.951H447.358L447.361 168.945C447.81 168.068 448.261 167.195 448.712 166.322C449.162 165.452 449.611 164.581 450.056 163.711L450.057 163.712C463.146 138.534 476.226 113.355 489.285 88.1963C489.551 87.691 490.125 87.4245 490.698 87.5547C490.944 87.6179 491.199 87.6724 491.408 87.7178V87.7168C493.297 88.1372 495.084 86.7916 495.313 84.9219V84.9199L496.133 78.1299L496.261 77.0684L495.194 77.0117C494.634 76.9817 494.121 76.9523 493.602 76.9043L493.594 76.9033H493.586C488.959 76.5481 484.384 75.7585 479.992 74.5176H479.991C479.136 74.2773 478.78 73.2441 479.313 72.5264L479.314 72.5254C484.83 65.0713 489.815 60.7937 492.902 58.583L492.904 58.582C495.65 56.6089 498.232 54.3938 500.536 51.8857C502.313 49.9705 501.203 46.8643 498.645 46.4619L496.927 46.1924H496.928C494.944 45.8737 492.941 45.7197 490.94 45.7197H467.43C461.791 45.7197 456.197 49.3307 451.597 53.749C451.033 54.2905 450.125 54.1959 449.684 53.5537L449.68 53.5488L449.236 52.8926C448.943 52.4502 448.656 51.9972 448.373 51.5352L447.948 50.8359C439.373 36.3946 438.171 19.2136 438.49 2.43555C438.507 1.76493 439.028 1.22717 439.679 1.18848L439.678 1.1875Z" fill="#FF002C"/>
<path d="M439.678 1.1875C468.455 -0.452034 499.265 8.22401 509.646 36.3945L509.887 37.0635C510.711 39.393 513.722 40.0649 515.397 38.1855L515.396 38.1846C521.107 31.7871 527.205 25.8334 534.157 20.7998L534.162 20.7959C534.953 20.2147 536.536 19.0501 538.099 17.9609C538.881 17.416 539.651 16.895 540.309 16.4785C540.991 16.0472 541.485 15.7722 541.743 15.6719L541.762 15.6641C541.842 15.6311 541.922 15.5968 541.986 15.5693C542.054 15.5402 542.111 15.5164 542.163 15.4961C542.215 15.4755 542.255 15.4613 542.285 15.4521L549.753 28.4385L549.754 28.4414C550.071 28.9882 549.924 29.6858 549.408 30.0732L549.299 30.1465C529.895 41.9809 515.281 60.8485 511.97 83.7373V83.7383C511.64 86.0488 513.765 87.9702 516.033 87.3779L516.035 87.377C529.839 83.738 544.331 80.0098 558.328 81.7422C592.151 85.9268 614.463 119.302 616.901 151.751L617.001 153.296C618.188 174.628 611.709 204.769 598.649 230.062C585.575 255.384 566.083 275.527 541.414 277.48H532.92C532.89 277.48 532.85 277.478 532.801 277.471L532.629 277.437C531.027 277.027 529.397 276.754 527.809 276.492C526.201 276.227 524.639 275.973 523.108 275.599H523.107C521.204 275.136 519.227 274.448 517.182 273.695C515.155 272.949 513.046 272.132 510.953 271.446C506.907 270.121 502.686 269.201 498.661 270.194L498.272 270.297C496.175 270.879 494.039 271.745 491.964 272.561C489.866 273.385 487.82 274.163 485.806 274.635L472.395 277.451L472.383 277.454C472.31 277.47 472.214 277.478 472.105 277.472C470.502 277.384 468.827 277.465 467.234 277.526C465.616 277.589 464.075 277.633 462.635 277.495L462.634 277.494L461.663 277.393C441.65 275.081 425.107 259.937 412.786 240.225L412.193 239.268C411.738 238.519 411.709 237.584 412.117 236.804L412.118 236.801C423.868 214.171 435.607 191.561 447.357 168.951H447.358L447.361 168.945C447.81 168.068 448.261 167.195 448.712 166.322C449.162 165.452 449.611 164.581 450.056 163.711L450.057 163.712C463.146 138.534 476.226 113.355 489.285 88.1963C489.551 87.691 490.125 87.4245 490.698 87.5547C490.944 87.6179 491.199 87.6724 491.408 87.7178V87.7168C493.297 88.1372 495.084 86.7916 495.313 84.9219V84.9199L496.133 78.1299L496.261 77.0684L495.194 77.0117C494.634 76.9817 494.121 76.9523 493.602 76.9043L493.594 76.9033H493.586C488.959 76.5481 484.384 75.7585 479.992 74.5176H479.991C479.136 74.2773 478.78 73.2441 479.313 72.5264L479.314 72.5254C484.83 65.0713 489.815 60.7937 492.902 58.583L492.904 58.582C495.65 56.6089 498.232 54.3938 500.536 51.8857C502.313 49.9705 501.203 46.8643 498.645 46.4619L496.927 46.1924H496.928C494.944 45.8737 492.941 45.7197 490.94 45.7197H467.43C461.791 45.7197 456.197 49.3307 451.597 53.749C451.033 54.2905 450.125 54.1959 449.684 53.5537L449.68 53.5488L449.236 52.8926C448.943 52.4502 448.656 51.9972 448.373 51.5352L447.948 50.8359C439.373 36.3946 438.171 19.2136 438.49 2.43555C438.507 1.76493 439.028 1.22717 439.679 1.18848L439.678 1.1875Z" stroke="white" stroke-width="2"/>
<path d="M194.947 52.3701L195.269 52.6387C189.575 56.5248 178.307 66.3559 168.287 87.8809C168.248 87.9484 168.207 88.0304 168.19 88.0645C168.117 88.2113 167.993 88.4711 167.823 88.8281C167.481 89.5455 166.944 90.6789 166.251 92.1514C164.865 95.0972 162.845 99.4059 160.475 104.466L159.807 105.89H178.39L178.679 105.614C186.525 98.1481 196.014 89.0698 203.54 81.8584C207.304 78.2526 210.577 75.1138 212.909 72.876C214.076 71.7571 215.006 70.8628 215.646 70.249C215.965 69.9423 216.212 69.7051 216.379 69.5449C216.462 69.4649 216.526 69.4042 216.569 69.3633C216.59 69.343 216.606 69.3277 216.616 69.3174C216.622 69.3125 216.625 69.3083 216.628 69.3057C216.63 69.3044 216.631 69.3034 216.632 69.3027V69.3018H216.633L217.438 68.5273L216.58 67.8125L198.641 52.8467L199.399 52.3701H243.906L242.68 60.8369L242.328 63.2705L244.279 61.7734L256.53 52.3701H359.212L357.549 60.7861L359.33 61.5801L366.24 52.3701H422.606C419.295 59.3024 405.246 88.8684 400.763 98.5088L400.102 99.9297H433.169L433.442 99.3633C439.632 86.4839 445.448 74.2219 446.854 71.1494C448.628 67.4127 451.999 62.6693 455.877 58.8682C457.813 56.9709 459.851 55.333 461.85 54.1748C463.858 53.0114 465.762 52.3701 467.45 52.3701H490.175C488.408 53.5443 486.029 55.3304 483.273 57.9297C477.329 63.5348 469.634 72.9016 462.498 87.998C460.857 91.4207 459.206 94.9618 457.568 98.499L449.348 115.699L449.344 115.706C447.005 120.704 444.951 125.034 443.464 128.182C442.721 129.754 442.119 131.035 441.694 131.954C441.481 132.413 441.311 132.787 441.189 133.064C441.11 133.244 441.023 133.442 440.969 133.599C435.243 145.7 434.875 153.395 436.09 158.154C436.632 160.276 437.485 161.787 438.283 162.82H415.263C415.231 162.797 415.194 162.772 415.156 162.741C414.943 162.571 414.633 162.294 414.285 161.887C413.593 161.075 412.738 159.731 412.2 157.655C411.125 153.504 411.292 146.292 416.863 134.401C418.131 131.745 421.423 124.909 425.345 116.555L426.014 115.13H415.684C397.805 111.66 392.52 110.917 386.573 109.273C381.187 107.785 375.304 105.572 359.141 99.9297H376.504L376.775 99.3564C380.444 91.578 384.048 83.989 386.736 78.3447C388.079 75.5227 389.194 73.1869 389.972 71.5566C390.361 70.7418 390.665 70.1029 390.873 69.668C390.977 69.4507 391.057 69.284 391.111 69.1719C391.137 69.1161 391.158 69.0734 391.171 69.0449C391.178 69.0309 391.183 69.0199 391.187 69.0127C391.188 69.0091 391.19 69.0057 391.191 69.0039L391.192 69.002L391.527 68.3027L390.933 67.8037L378.683 57.5244L378.002 56.9531L377.355 57.5615C372.264 62.3506 366.015 70.2576 359.8 83.2598H336.185L338.688 77.8496L338.689 77.8486C339.931 75.1517 339.864 72.5388 338.463 70.5752C337.078 68.6334 334.566 67.5802 331.45 67.5801H294.39L294.085 69.5322L309.579 74.498L307.142 79.791C305.498 83.3484 305.816 86.914 308.544 89.1924V89.1934L339.664 115.504C341.76 117.286 342.295 120.166 340.669 123.536L340.664 123.546L335.985 133.536C327.737 151.147 330.699 159.425 333.298 162.82H264.91C258.805 162.82 254.533 160.659 252.419 157.423C250.316 154.203 250.168 149.641 252.896 144.424L253.269 143.711L252.653 143.194L237.303 130.314L236.308 129.479L235.755 130.654L234.395 133.544V133.546C228.708 145.681 228.37 153.392 229.605 158.157C230.154 160.278 231.01 161.787 231.81 162.82H197.151L215.966 122.493L216.497 121.354L215.269 121.092L188.617 115.41L159.719 107.981L158.916 107.775L158.565 108.525C154.965 116.205 150.805 125.065 146.885 133.395L148.479 134.545C151.104 132.048 158.419 124.978 167.908 115.85L184.185 120.137L184.21 120.144L184.236 120.148L188.442 121.028C178.647 130.356 171.423 137.233 170.323 138.333C166.328 142.069 163.348 146.212 161.395 150.375L161.394 150.378L155.593 162.83H129.066L131.71 157.035L131.709 157.034C132.254 155.906 132.861 154.782 133.495 153.633L132.021 152.35C130.939 153.159 129.819 153.935 128.658 154.683L128.657 154.68L127.729 155.247C119.773 160.105 110.711 162.82 102.7 162.82H44.8186C46.3853 161.871 48.3582 160.525 50.5657 158.672C55.9834 154.125 62.8096 146.549 68.5637 134.398L69.2405 132.97H69.1086C71.0375 128.881 76.6504 116.92 82.1868 105.109C85.5074 98.0256 88.8047 90.9889 91.2717 85.7236C92.505 83.0914 93.5307 80.9018 94.2483 79.3701C94.6071 78.6043 94.8893 78.0026 95.0813 77.5928C95.0897 77.5749 95.0977 77.5572 95.1057 77.54H118.707L86.6145 146.066L85.9475 147.49H100.3C104.875 147.49 109.668 145.937 113.747 143.457C117.823 140.98 121.273 137.525 123.086 133.633L123.085 133.632L149.482 77.334L170.48 69.5068L170.13 67.5703H98.6428L80.4192 52.3701H194.947ZM371.696 110.032C379.107 112.643 381.859 113.684 384.047 114.305C386.155 114.902 387.796 115.127 392.487 115.988C386.745 128.085 381.276 139.604 377.171 148.259C373.654 155.674 371.118 161.034 370.288 162.82H336.31C341.727 159.549 351.992 151.525 360.192 134.392L360.197 134.382C360.197 134.38 360.198 134.378 360.199 134.375C360.202 134.369 360.206 134.361 360.211 134.351C360.222 134.328 360.237 134.294 360.258 134.25C360.299 134.162 360.361 134.03 360.442 133.858C360.603 133.514 360.841 133.007 361.146 132.356C361.756 131.055 362.638 129.178 363.721 126.879C365.8 122.464 368.621 116.49 371.696 110.032ZM275.802 58.4834C269.983 64.1503 262.613 73.3902 255.764 88.0156L237.775 126.346L237.106 127.771H284.445L279.941 137.213C278.624 139.919 278.689 142.538 280.092 144.505C281.475 146.444 283.984 147.5 287.04 147.5H324.23L324.633 145.585L309.76 139.037L312.236 133.765L312.24 133.756L312.243 133.746C313.876 130.073 313.568 126.504 310.829 124.222L279.716 97.916C277.619 96.1322 277.076 93.2524 278.7 89.8848L278.704 89.8779L288.574 69.0078L288.904 68.3105L288.313 67.8145L277.143 58.4346L276.45 57.8525L275.802 58.4834ZM235.748 75.708C226.505 84.561 216.01 94.6769 206.022 104.165L204.205 105.89H223.797L224.067 105.312L237.346 76.8525L235.748 75.708ZM169.115 88.4521C169.055 88.5711 168.924 88.8388 168.732 89.2422C168.633 89.2063 168.543 89.1647 168.476 89.1182C168.34 88.9653 168.197 88.6743 168.168 88.5566C168.136 88.3744 168.164 88.2277 168.166 88.2158C168.174 88.1709 168.184 88.1365 168.188 88.1211C168.197 88.0886 168.205 88.0643 168.207 88.0576C168.208 88.0553 168.208 88.0528 168.209 88.0508L169.115 88.4521Z" fill="black" stroke="white" stroke-width="2"/>
<path d="M187.689 172.04C182.14 183.753 145.098 261.827 143.209 265.735L142.516 267.17H173.201L173.472 266.601L186.231 239.85H209.836C208.447 242.811 206.628 246.651 204.607 250.959L204.602 250.943L203.537 253.191C197.785 265.326 197.412 273.037 198.629 277.804C199.171 279.925 200.023 281.436 200.822 282.47H101.389C102.956 281.521 104.928 280.175 107.135 278.322C112.553 273.775 119.379 266.199 125.133 254.048L156.124 188.648L156.455 187.95L155.863 187.454L148.383 181.174L147.646 180.556L147 181.268C141.771 187.023 135.698 195.476 129.998 207.649L127.217 213.469C125.944 216.134 123.223 218.767 119.715 220.459L107.325 226.274L105.922 226.934L107.1 227.94L114.06 233.891L114.078 233.904C115.637 235.178 116.073 237.41 114.818 240.039L114.817 240.041L114.816 240.042C114.815 240.043 114.815 240.044 114.814 240.046C114.812 240.05 114.81 240.056 114.806 240.063C114.799 240.078 114.789 240.101 114.775 240.13C114.747 240.189 114.705 240.276 114.651 240.39C114.542 240.618 114.383 240.955 114.178 241.386C113.769 242.248 113.18 243.49 112.46 245.008C111.021 248.044 109.06 252.188 106.975 256.614L106.971 256.622C103.725 263.671 97.3428 270.146 89.6216 274.863C81.9037 279.578 72.9411 282.48 64.6196 282.48H4.07568C5.64049 281.531 7.60927 280.184 9.81104 278.331C15.2144 273.783 22.0114 266.206 27.7056 254.055V254.054L52.2261 201.63H75.9468L45.8745 265.735L45.2065 267.16H66.3901C69.7682 267.16 73.3303 266.018 76.3521 264.186C79.3607 262.361 81.9242 259.794 83.2319 256.85L83.2329 256.851L88.4224 245.971V245.97C89.8061 243.065 89.6987 240.229 88.1763 238.098C86.6702 235.989 83.9437 234.8 80.5601 234.8H66.9565L74.1147 219.6H88.6597C92.0382 219.6 95.5998 218.457 98.6362 216.626C101.668 214.797 104.264 212.228 105.634 209.285L105.635 209.286L111.411 197.005L132.41 189.177L132.06 187.24H57.7935L39.5698 172.04H187.689Z" fill="black" stroke="white" stroke-width="2"/>
<path d="M255.87 282.624C255.872 282.624 255.872 282.625 255.872 282.625C255.872 282.625 255.871 282.624 255.868 282.623L255.87 282.624ZM432.824 172.04C432.764 172.083 432.701 172.126 432.639 172.171C430.757 173.532 428.132 175.61 425.13 178.493C419.126 184.257 411.615 193.242 405.545 206.144L405.54 206.154C404.244 208.989 401.992 211.376 399.231 213.055L334.978 251.381L334.961 251.391L334.946 251.402C330.118 254.538 326.198 258.977 323.834 264.215L323.085 265.712L322.362 267.16H357.63C365.562 267.16 372.431 263.822 377.278 260.538C378.762 259.531 380.064 258.524 381.156 257.612L369.397 282.49H291.538C299.696 265.218 303.958 256.206 306.297 251.149C308.614 246.398 312.279 242.374 316.781 239.7L316.782 239.699L376.742 203.899L376.758 203.889C379.803 201.996 382.594 199.593 384.909 196.824L408.794 189.193L408.49 187.24H355.61C347.68 187.24 340.81 190.613 335.963 193.93C334.49 194.938 333.197 195.946 332.11 196.861L335.984 188.667L336.658 187.24H312.683L312.409 187.804C308.488 195.907 284.721 246.101 281.416 253.211C275.665 265.346 275.293 273.057 276.51 277.824C277.052 279.945 277.904 281.456 278.702 282.49H255.682C255.651 282.466 255.614 282.442 255.576 282.412C255.364 282.242 255.056 281.965 254.71 281.558C254.021 280.747 253.171 279.403 252.642 277.329C251.583 273.177 251.78 265.963 257.413 254.068L257.416 254.062C260.776 246.851 280.62 204.954 284.428 196.9L308.554 189.193L308.25 187.24H267.352L265.002 185.419L264.019 184.658L263.487 185.782C253.016 207.883 234.847 246.17 231.468 253.208L231.464 253.215C225.778 265.35 225.44 273.061 226.674 277.827C227.223 279.947 228.079 281.457 228.879 282.49H205.861C205.829 282.466 205.793 282.442 205.755 282.412C205.542 282.242 205.232 281.964 204.885 281.556C204.193 280.744 203.338 279.401 202.8 277.326C201.725 273.174 201.892 265.96 207.464 254.067C210.752 247.111 234.535 197.015 238.455 188.665L238.782 187.968L238.193 187.474L219.807 172.04H432.824Z" fill="black" stroke="white" stroke-width="2"/>
</g>
<defs>
<clipPath id="clip0_24_16">
<rect width="618.14" height="283.5" fill="white"/>
</clipPath>
</defs>
</svg>
